<?xml version="1.0" encoding="UTF-8" standalone="no"?>
<!DOCTYPE svg PUBLIC "-//W3C//DTD SVG 1.1//EN" "http://www.w3.org/Graphics/SVG/1.1/DTD/svg11.dtd">
<svg version="1.1" xmlns="http://www.w3.org/2000/svg" xmlns:xlink="http://www.w3.org/1999/xlink" preserveAspectRatio="xMidYMid meet" viewBox="0 0 640 640" width="50" height="50"><defs><path d="M488.53 574.85L488.47 575.81L488.37 576.76L488.24 577.69L488.07 578.62L487.87 579.53L487.63 580.43L487.35 581.31L487.04 582.18L486.7 583.03L486.33 583.86L485.93 584.68L485.49 585.48L485.03 586.26L484.54 587.02L484.01 587.76L483.47 588.48L482.89 589.17L482.29 589.85L481.67 590.5L481.02 591.12L480.34 591.72L479.65 592.3L478.93 592.85L478.19 593.37L477.43 593.86L476.65 594.32L475.85 594.76L475.03 595.16L474.2 595.53L473.35 595.87L472.48 596.18L471.6 596.46L470.7 596.7L469.79 596.9L468.86 597.07L467.93 597.2L466.98 597.3L466.02 597.36L465.05 597.38L165.27 597.38L164.3 597.36L163.34 597.3L162.4 597.2L161.46 597.07L160.54 596.9L159.62 596.7L158.73 596.46L157.84 596.18L156.98 595.87L156.13 595.53L155.29 595.16L154.47 594.76L153.67 594.32L152.89 593.86L152.13 593.37L151.39 592.85L150.68 592.3L149.98 591.72L149.31 591.12L148.66 590.5L148.03 589.85L147.43 589.17L146.86 588.48L146.31 587.76L145.79 587.02L145.29 586.26L144.83 585.48L144.4 584.68L143.99 583.86L143.62 583.03L143.28 582.18L142.97 581.31L142.7 580.43L142.46 579.53L142.25 578.62L142.08 577.69L141.95 576.76L141.85 575.81L141.79 574.85L141.77 573.88L141.77 163.67L488.55 163.67L488.55 573.88L488.53 574.85ZM219.82 197.48L219 197.53L218.2 197.61L217.4 197.72L216.61 197.87L215.84 198.04L215.08 198.25L214.32 198.48L213.59 198.74L212.86 199.03L212.15 199.35L211.45 199.69L210.77 200.06L210.11 200.46L209.46 200.88L208.83 201.32L208.22 201.78L207.63 202.27L207.06 202.79L206.5 203.32L205.97 203.87L205.46 204.44L204.97 205.04L204.5 205.65L204.06 206.28L203.64 206.92L203.25 207.59L202.88 208.27L202.53 208.96L202.22 209.67L201.93 210.4L201.66 211.14L201.43 211.89L201.23 212.65L201.05 213.43L200.91 214.22L200.79 215.01L200.71 215.82L200.66 216.64L200.65 217.46L200.65 543.59L200.66 544.41L200.71 545.23L200.79 546.04L200.91 546.83L201.05 547.62L201.23 548.39L201.43 549.16L201.66 549.91L201.93 550.65L202.22 551.37L202.53 552.08L202.88 552.78L203.25 553.46L203.64 554.12L204.06 554.77L204.5 555.4L204.97 556.01L205.46 556.6L205.97 557.18L206.5 557.73L207.06 558.26L207.63 558.77L208.22 559.26L208.83 559.73L209.46 560.17L210.11 560.59L210.77 560.99L211.45 561.36L212.15 561.7L212.86 562.02L213.59 562.31L214.32 562.57L215.08 562.8L215.84 563.01L216.61 563.18L217.4 563.33L218.2 563.44L219 563.52L219.82 563.57L220.65 563.59L225.81 563.59L226.63 563.57L227.45 563.52L228.25 563.44L229.05 563.33L229.84 563.18L230.61 563.01L231.38 562.8L232.13 562.57L232.87 562.31L233.59 562.02L234.3 561.7L235 561.36L235.68 560.99L236.34 560.59L236.99 560.17L237.62 559.73L238.23 559.26L238.82 558.77L239.4 558.26L239.95 557.73L240.48 557.18L240.99 556.6L241.48 556.01L241.95 555.4L242.39 554.77L242.81 554.12L243.2 553.46L243.57 552.78L243.92 552.08L244.23 551.37L244.52 550.65L244.79 549.91L245.02 549.16L245.23 548.39L245.4 547.62L245.54 546.83L245.66 546.04L245.74 545.23L245.79 544.41L245.81 543.59L245.81 217.46L245.79 216.64L245.74 215.82L245.66 215.01L245.54 214.22L245.4 213.43L245.23 212.65L245.02 211.89L244.79 211.14L244.52 210.4L244.23 209.67L243.92 208.96L243.57 208.27L243.2 207.59L242.81 206.92L242.39 206.28L241.95 205.65L241.48 205.04L240.99 204.44L240.48 203.87L239.95 203.32L239.4 202.79L238.82 202.27L238.23 201.78L237.62 201.32L236.99 200.88L236.34 200.46L235.68 200.06L235 199.69L234.3 199.35L233.59 199.03L232.87 198.74L232.13 198.48L231.38 198.25L230.61 198.04L229.84 197.87L229.05 197.72L228.25 197.61L227.45 197.53L226.63 197.48L225.81 197.46L220.65 197.46L219.82 197.48ZM413.37 195.94L412.55 195.99L411.75 196.08L410.95 196.19L410.16 196.33L409.39 196.51L408.62 196.71L407.87 196.95L407.13 197.21L406.41 197.5L405.7 197.82L405 198.16L404.32 198.53L403.66 198.92L403.01 199.34L402.38 199.79L401.77 200.25L401.18 200.74L400.6 201.25L400.05 201.79L399.52 202.34L399.01 202.91L398.52 203.5L398.05 204.12L397.61 204.75L397.19 205.39L396.8 206.06L396.43 206.74L396.08 207.43L395.77 208.14L395.48 208.87L395.21 209.61L394.98 210.36L394.77 211.12L394.6 211.9L394.46 212.68L394.34 213.48L394.26 214.29L394.21 215.1L394.19 215.93L394.19 542.06L394.21 542.88L394.26 543.7L394.34 544.5L394.46 545.3L394.6 546.09L394.77 546.86L394.98 547.63L395.21 548.38L395.48 549.12L395.77 549.84L396.08 550.55L396.43 551.25L396.8 551.93L397.19 552.59L397.61 553.24L398.05 553.87L398.52 554.48L399.01 555.07L399.52 555.65L400.05 556.2L400.6 556.73L401.18 557.24L401.77 557.73L402.38 558.2L403.01 558.64L403.66 559.06L404.32 559.45L405 559.82L405.7 560.17L406.41 560.48L407.13 560.77L407.87 561.04L408.62 561.27L409.39 561.48L410.16 561.65L410.95 561.79L411.75 561.91L412.55 561.99L413.37 562.04L414.19 562.06L419.35 562.06L420.18 562.04L421 561.99L421.8 561.91L422.6 561.79L423.39 561.65L424.16 561.48L424.92 561.27L425.68 561.04L426.41 560.77L427.14 560.48L427.85 560.17L428.55 559.82L429.23 559.45L429.89 559.06L430.54 558.64L431.17 558.2L431.78 557.73L432.37 557.24L432.94 556.73L433.5 556.2L434.03 555.65L434.54 555.07L435.03 554.48L435.5 553.87L435.94 553.24L436.36 552.59L436.75 551.93L437.12 551.25L437.47 550.55L437.78 549.84L438.07 549.12L438.34 548.38L438.57 547.63L438.77 546.86L438.95 546.09L439.09 545.3L439.21 544.5L439.29 543.7L439.34 542.88L439.35 542.06L439.35 215.93L439.34 215.1L439.29 214.29L439.21 213.48L439.09 212.68L438.95 211.9L438.77 211.12L438.57 210.36L438.34 209.61L438.07 208.87L437.78 208.14L437.47 207.43L437.12 206.74L436.75 206.06L436.36 205.39L435.94 204.75L435.5 204.12L435.03 203.5L434.54 202.91L434.03 202.34L433.5 201.79L432.94 201.25L432.37 200.74L431.78 200.25L431.17 199.79L430.54 199.34L429.89 198.92L429.23 198.53L428.55 198.16L427.85 197.82L427.14 197.5L426.41 197.21L425.68 196.95L424.92 196.71L424.16 196.51L423.39 196.33L422.6 196.19L421.8 196.08L421 195.99L420.18 195.94L419.35 195.93L414.19 195.93L413.37 195.94ZM316.59 195.94L315.78 195.99L314.97 196.08L314.18 196.19L313.39 196.33L312.61 196.51L311.85 196.71L311.1 196.95L310.36 197.21L309.63 197.5L308.92 197.82L308.23 198.16L307.55 198.53L306.88 198.92L306.24 199.34L305.61 199.79L305 200.25L304.4 200.74L303.83 201.25L303.28 201.79L302.74 202.34L302.23 202.91L301.74 203.5L301.28 204.12L300.84 204.75L300.42 205.39L300.02 206.06L299.65 206.74L299.31 207.43L298.99 208.14L298.7 208.87L298.44 209.61L298.21 210.36L298 211.12L297.83 211.9L297.68 212.68L297.57 213.48L297.49 214.29L297.44 215.1L297.42 215.93L297.42 542.06L297.44 542.88L297.49 543.7L297.57 544.5L297.68 545.3L297.83 546.09L298 546.86L298.21 547.63L298.44 548.38L298.7 549.12L298.99 549.84L299.31 550.55L299.65 551.25L300.02 551.93L300.42 552.59L300.84 553.24L301.28 553.87L301.74 554.48L302.23 555.07L302.74 555.65L303.28 556.2L303.83 556.73L304.4 557.24L305 557.73L305.61 558.2L306.24 558.64L306.88 559.06L307.55 559.45L308.23 559.82L308.92 560.17L309.63 560.48L310.36 560.77L311.1 561.04L311.85 561.27L312.61 561.48L313.39 561.65L314.18 561.79L314.97 561.91L315.78 561.99L316.59 562.04L317.42 562.06L322.58 562.06L323.41 562.04L324.22 561.99L325.03 561.91L325.82 561.79L326.61 561.65L327.39 561.48L328.15 561.27L328.9 561.04L329.64 560.77L330.37 560.48L331.08 560.17L331.77 559.82L332.45 559.45L333.12 559.06L333.76 558.64L334.39 558.2L335 557.73L335.6 557.24L336.17 556.73L336.72 556.2L337.26 555.65L337.77 555.07L338.26 554.48L338.72 553.87L339.16 553.24L339.58 552.59L339.98 551.93L340.35 551.25L340.69 550.55L341.01 549.84L341.3 549.12L341.56 548.38L341.79 547.63L342 546.86L342.17 546.09L342.32 545.3L342.43 544.5L342.51 543.7L342.56 542.88L342.58 542.06L342.58 215.93L342.56 215.1L342.51 214.29L342.43 213.48L342.32 212.68L342.17 211.9L342 211.12L341.79 210.36L341.56 209.61L341.3 208.87L341.01 208.14L340.69 207.43L340.35 206.74L339.98 206.06L339.58 205.39L339.16 204.75L338.72 204.12L338.26 203.5L337.77 202.91L337.26 202.34L336.72 201.79L336.17 201.25L335.6 200.74L335 200.25L334.39 199.79L333.76 199.34L333.12 198.92L332.45 198.53L331.77 198.16L331.08 197.82L330.37 197.5L329.64 197.21L328.9 196.95L328.15 196.71L327.39 196.51L326.61 196.33L325.82 196.19L325.03 196.08L324.22 195.99L323.41 195.94L322.58 195.93L317.42 195.93L316.59 195.94ZM514.54 105.67L515.35 105.75L516.15 105.87L516.93 106.01L517.71 106.19L518.47 106.39L519.22 106.62L519.96 106.89L520.69 107.18L521.4 107.49L522.09 107.84L522.77 108.21L523.44 108.6L524.09 109.02L524.71 109.46L525.33 109.93L525.92 110.42L526.49 110.93L527.05 111.46L527.58 112.02L528.09 112.59L528.58 113.18L529.04 113.79L529.49 114.42L529.91 115.07L530.3 115.73L530.67 116.41L531.01 117.11L531.33 117.82L531.62 118.54L531.88 119.28L532.12 120.03L532.32 120.8L532.5 121.57L532.64 122.36L532.76 123.16L532.84 123.96L532.89 124.78L532.9 125.6L532.9 151.73L532.89 152.56L532.84 153.37L532.76 154.18L532.67 154.8L107.33 154.8L107.24 154.18L107.16 153.37L107.11 152.56L107.1 151.73L107.1 125.6L107.11 124.78L107.16 123.96L107.24 123.16L107.36 122.36L107.5 121.57L107.68 120.8L107.88 120.03L108.12 119.28L108.38 118.54L108.67 117.82L108.99 117.11L109.33 116.41L109.7 115.73L110.09 115.07L110.51 114.42L110.96 113.79L111.42 113.18L111.91 112.59L112.42 112.02L112.95 111.46L113.51 110.93L114.08 110.42L114.67 109.93L115.29 109.46L115.91 109.02L116.56 108.6L117.23 108.21L117.91 107.84L118.6 107.49L119.31 107.18L120.04 106.89L120.78 106.62L121.53 106.39L122.29 106.19L123.07 106.01L123.85 105.87L124.65 105.75L125.46 105.67L126.27 105.62L127.1 105.6L512.9 105.6L513.73 105.62L514.54 105.67ZM398.41 42.69L399.22 42.77L400.02 42.88L400.8 43.03L401.58 43.2L402.34 43.41L403.1 43.64L403.83 43.9L404.56 44.19L405.27 44.51L405.97 44.85L406.65 45.22L407.31 45.62L407.96 46.04L408.59 46.48L409.2 46.95L409.79 47.44L410.36 47.95L410.92 48.48L411.45 49.03L411.96 49.61L412.45 50.2L412.92 50.81L413.36 51.44L413.78 52.09L414.17 52.75L414.54 53.43L414.89 54.13L415.2 54.84L415.49 55.56L415.75 56.3L415.99 57.05L416.19 57.81L416.37 58.59L416.51 59.38L416.63 60.17L416.71 60.98L416.76 61.8L416.77 62.62L416.77 105.6L396.61 105.6L396.61 77.66L396.6 76.97L396.56 76.28L396.49 75.6L396.39 74.93L396.27 74.27L396.12 73.62L395.95 72.98L395.76 72.35L395.54 71.73L395.29 71.12L395.02 70.52L394.74 69.93L394.43 69.36L394.09 68.8L393.74 68.26L393.37 67.73L392.98 67.22L392.57 66.72L392.14 66.24L391.69 65.77L391.22 65.32L390.74 64.89L390.24 64.48L389.73 64.09L389.2 63.72L388.66 63.37L388.1 63.03L387.53 62.72L386.94 62.43L386.34 62.17L385.73 61.92L385.11 61.7L384.48 61.51L383.84 61.34L383.19 61.19L382.53 61.07L381.86 60.97L381.18 60.9L380.49 60.86L379.8 60.85L260.2 60.85L259.51 60.86L258.82 60.9L258.14 60.97L257.47 61.07L256.81 61.19L256.16 61.34L255.52 61.51L254.89 61.7L254.27 61.92L253.66 62.17L253.06 62.43L252.47 62.72L251.9 63.03L251.34 63.37L250.8 63.72L250.27 64.09L249.76 64.48L249.26 64.89L248.78 65.32L248.31 65.77L247.86 66.24L247.43 66.72L247.02 67.22L246.63 67.73L246.26 68.26L245.91 68.8L245.57 69.36L245.26 69.93L244.98 70.52L244.71 71.12L244.46 71.73L244.24 72.35L244.05 72.98L243.88 73.62L243.73 74.27L243.61 74.93L243.51 75.6L243.44 76.28L243.4 76.97L243.39 77.66L243.39 105.6L223.23 105.6L223.23 62.62L223.24 61.8L223.29 60.98L223.37 60.17L223.49 59.38L223.63 58.59L223.81 57.81L224.01 57.05L224.25 56.3L224.51 55.56L224.8 54.84L225.11 54.13L225.46 53.43L225.83 52.75L226.22 52.09L226.64 51.44L227.08 50.81L227.55 50.2L228.04 49.61L228.55 49.03L229.08 48.48L229.64 47.95L230.21 47.44L230.8 46.95L231.41 46.48L232.04 46.04L232.69 45.62L233.35 45.22L234.03 44.85L234.73 44.51L235.44 44.19L236.17 43.9L236.9 43.64L237.66 43.41L238.42 43.2L239.2 43.03L239.98 42.88L240.78 42.77L241.59 42.69L242.4 42.64L243.23 42.62L396.77 42.62L397.6 42.64L398.41 42.69Z" id="a2XjHEoVKO"></path></defs><g><g><g><use xlink:href="#a2XjHEoVKO" opacity="1" fill="#000000" fill-opacity="1"></use></g></g></g></svg>