<?xml version="1.0" encoding="UTF-8" standalone="no"?>
<!DOCTYPE svg PUBLIC "-//W3C//DTD SVG 1.1//EN" "http://www.w3.org/Graphics/SVG/1.1/DTD/svg11.dtd">
<svg version="1.1" xmlns="http://www.w3.org/2000/svg" xmlns:xlink="http://www.w3.org/1999/xlink" preserveAspectRatio="xMidYMid meet" viewBox="0 0 640 640" width="50" height="50"><defs><path d="M266.01 119.27L266.8 119.35L267.58 119.46L268.35 119.6L269.11 119.77L269.86 119.97L270.59 120.2L271.31 120.46L272.02 120.74L272.72 121.05L273.4 121.39L274.06 121.75L274.71 122.13L275.35 122.54L275.96 122.98L276.56 123.43L277.14 123.91L277.7 124.41L278.24 124.93L278.76 125.47L279.26 126.03L279.74 126.61L280.2 127.21L280.63 127.83L281.04 128.46L281.43 129.11L281.79 129.78L282.13 130.46L282.44 131.15L282.72 131.86L282.98 132.58L283.2 133.32L283.4 134.07L283.58 134.83L283.72 135.59L283.83 136.37L283.91 137.16L283.96 137.96L283.97 138.77L283.97 330.9L283.96 331.7L283.91 332.5L283.83 333.29L283.72 334.07L283.58 334.84L283.4 335.6L283.2 336.34L283.14 336.56L283.73 344.23L283.97 352.57L283.81 360.98L283.26 369.45L282.31 377.97L280.98 386.53L279.27 395.12L277.18 403.73L274.73 412.34L271.9 420.96L268.72 429.56L265.18 438.14L261.28 446.68L257.05 455.19L252.47 463.64L247.55 472.03L242.3 480.35L236.72 488.58L230.82 496.72L224.61 504.76L218.08 512.68L211.24 520.48L210.95 520.8L197.08 520.7L167.8 458.8L165.09 437.87L166.01 435.95L168.56 430.14L170.87 424.3L172.95 418.45L174.78 412.58L176.36 406.71L177.69 400.84L178.78 394.99L179.6 389.14L180.17 383.33L180.47 377.54L180.51 371.79L180.28 366.08L179.78 360.42L179.01 354.82L178.18 350.46L90.4 350.46L89.59 350.45L88.8 350.4L88.01 350.32L87.23 350.21L86.46 350.06L85.7 349.89L84.95 349.69L84.22 349.46L83.49 349.21L82.78 348.92L82.09 348.61L81.41 348.28L80.74 347.92L80.09 347.53L79.46 347.12L78.84 346.69L78.25 346.23L77.67 345.75L77.11 345.25L76.56 344.73L76.04 344.19L75.54 343.63L75.06 343.05L74.61 342.45L74.18 341.84L73.76 341.2L73.38 340.55L73.02 339.89L72.68 339.21L72.37 338.51L72.09 337.8L71.83 337.08L71.6 336.34L71.4 335.6L71.23 334.84L71.09 334.07L70.98 333.29L70.9 332.5L70.85 331.7L70.83 330.9L70.83 138.77L70.85 137.96L70.9 137.16L70.98 136.37L71.09 135.59L71.23 134.83L71.4 134.07L71.6 133.32L71.83 132.58L72.09 131.86L72.37 131.15L72.68 130.46L73.02 129.78L73.38 129.11L73.76 128.46L74.18 127.83L74.61 127.21L75.06 126.61L75.54 126.03L76.04 125.47L76.56 124.93L77.11 124.41L77.67 123.91L78.25 123.43L78.84 122.98L79.46 122.54L80.09 122.13L80.74 121.75L81.41 121.39L82.09 121.05L82.78 120.74L83.49 120.46L84.22 120.2L84.95 119.97L85.7 119.77L86.46 119.6L87.23 119.46L88.01 119.35L88.8 119.27L89.59 119.22L90.4 119.2L264.41 119.2L265.21 119.22L266.01 119.27Z" id="ao9CtKETs"></path><path d="M539.24 119.27L540.03 119.35L540.81 119.46L541.58 119.6L542.34 119.77L543.08 119.97L543.82 120.2L544.54 120.46L545.25 120.74L545.95 121.05L546.63 121.39L547.29 121.75L547.94 122.13L548.58 122.54L549.19 122.98L549.79 123.43L550.37 123.91L550.93 124.41L551.47 124.93L551.99 125.47L552.49 126.03L552.97 126.61L553.43 127.21L553.86 127.83L554.27 128.46L554.66 129.11L555.02 129.78L555.35 130.46L555.66 131.15L555.95 131.86L556.2 132.58L556.43 133.32L556.63 134.07L556.8 134.83L556.95 135.59L557.06 136.37L557.14 137.16L557.19 137.96L557.2 138.77L557.2 330.9L557.19 331.7L557.14 332.5L557.06 333.29L556.95 334.07L556.8 334.84L556.63 335.6L556.43 336.34L556.37 336.56L556.96 344.23L557.2 352.57L557.04 360.98L556.49 369.45L555.54 377.97L554.21 386.53L552.5 395.12L550.41 403.73L547.95 412.34L545.13 420.96L541.95 429.56L538.41 438.14L534.51 446.68L530.27 455.19L525.69 463.64L520.78 472.03L515.53 480.35L509.95 488.58L504.05 496.72L497.83 504.76L491.31 512.68L484.47 520.48L484.18 520.8L470.31 520.7L441.03 458.8L438.32 437.87L439.24 435.95L441.79 430.14L444.1 424.3L446.18 418.45L448.01 412.58L449.59 406.71L450.92 400.84L452 394.99L452.83 389.14L453.4 383.33L453.7 377.54L453.74 371.79L453.51 366.08L453.01 360.42L452.24 354.82L451.41 350.46L363.63 350.46L362.82 350.45L362.02 350.4L361.24 350.32L360.46 350.21L359.69 350.06L358.93 349.89L358.18 349.69L357.44 349.46L356.72 349.21L356.01 348.92L355.32 348.61L354.64 348.28L353.97 347.92L353.32 347.53L352.69 347.12L352.07 346.69L351.48 346.23L350.9 345.75L350.33 345.25L349.79 344.73L349.27 344.19L348.77 343.63L348.29 343.05L347.84 342.45L347.4 341.84L346.99 341.2L346.61 340.55L346.25 339.89L345.91 339.21L345.6 338.51L345.32 337.8L345.06 337.08L344.83 336.34L344.63 335.6L344.46 334.84L344.32 334.07L344.21 333.29L344.13 332.5L344.08 331.7L344.06 330.9L344.06 138.77L344.08 137.96L344.13 137.16L344.21 136.37L344.32 135.59L344.46 134.83L344.63 134.07L344.83 133.32L345.06 132.58L345.32 131.86L345.6 131.15L345.91 130.46L346.25 129.78L346.61 129.11L346.99 128.46L347.4 127.83L347.84 127.21L348.29 126.61L348.77 126.03L349.27 125.47L349.79 124.93L350.33 124.41L350.9 123.91L351.48 123.43L352.07 122.98L352.69 122.54L353.32 122.13L353.97 121.75L354.64 121.39L355.32 121.05L356.01 120.74L356.72 120.46L357.44 120.2L358.18 119.97L358.93 119.77L359.69 119.6L360.46 119.46L361.24 119.35L362.02 119.27L362.82 119.22L363.63 119.2L537.64 119.2L538.44 119.22L539.24 119.27Z" id="f5L1ecTcI"></path></defs><g><g><g><use xlink:href="#ao9CtKETs" opacity="1" fill="#000000" fill-opacity="1"></use></g><g><use xlink:href="#f5L1ecTcI" opacity="1" fill="#000000" fill-opacity="1"></use></g></g></g></svg>