<?xml version="1.0" encoding="UTF-8" standalone="no"?>
<!DOCTYPE svg PUBLIC "-//W3C//DTD SVG 1.1//EN" "http://www.w3.org/Graphics/SVG/1.1/DTD/svg11.dtd">
<svg version="1.1" xmlns="http://www.w3.org/2000/svg" xmlns:xlink="http://www.w3.org/1999/xlink" preserveAspectRatio="xMidYMid meet" viewBox="0 0 640 640" width="50" height="50"><defs><path d="M365.42 168.5L380.21 170.36L394.82 172.72L409.21 175.58L423.39 178.92L437.34 182.74L451.06 187.03L464.52 191.77L477.71 196.95L490.63 202.56L503.26 208.6L515.59 215.05L527.6 221.9L539.3 229.14L550.65 236.76L561.66 244.75L572.31 253.1L582.58 261.8L592.47 270.84L601.97 280.2L611.05 289.88L619.72 299.87L627.95 310.16L635.74 320.72L640 327.03L635.74 333.28L627.95 343.78L619.72 353.99L611.05 363.9L601.97 373.51L592.47 382.81L582.58 391.78L572.31 400.41L561.66 408.7L550.65 416.64L539.3 424.2L527.6 431.39L515.59 438.19L503.26 444.59L490.63 450.59L477.71 456.16L464.52 461.31L451.06 466.01L437.34 470.26L423.39 474.06L409.21 477.38L394.82 480.21L380.21 482.56L365.42 484.4L350.44 485.73L335.3 486.54L320 486.81L304.7 486.54L289.56 485.73L274.58 484.4L259.79 482.56L245.19 480.21L230.79 477.38L216.61 474.06L202.66 470.26L188.95 466.01L175.49 461.31L162.29 456.16L149.37 450.59L136.74 444.59L124.41 438.19L112.4 431.39L100.71 424.2L89.35 416.64L78.34 408.7L67.69 400.41L57.42 391.78L47.53 382.81L38.04 373.51L28.95 363.9L20.28 353.99L12.05 343.78L4.26 333.28L0 327.03L4.26 320.72L12.05 310.16L20.28 299.87L28.95 289.88L38.04 280.2L47.53 270.84L57.42 261.8L67.69 253.1L78.34 244.75L89.35 236.76L100.71 229.14L112.4 221.9L124.41 215.05L136.74 208.6L149.37 202.56L162.29 196.95L175.49 191.77L188.95 187.03L202.66 182.74L216.61 178.92L230.79 175.58L245.19 172.72L259.79 170.36L274.58 168.5L289.56 167.16L304.7 166.35L320 166.08L335.3 166.35L350.44 167.16L350.44 167.16L365.42 168.5ZM304.52 204.07L299.65 204.76L294.84 205.65L290.1 206.73L285.44 207.98L280.85 209.42L276.33 211.03L271.9 212.81L267.56 214.76L263.31 216.86L259.16 219.13L255.1 221.56L251.14 224.13L247.3 226.85L243.56 229.71L239.94 232.72L236.43 235.86L233.05 239.12L229.8 242.52L226.67 246.04L223.68 249.68L220.83 253.43L218.12 257.29L215.56 261.26L213.14 265.34L210.89 269.51L208.78 273.78L206.85 278.14L205.07 282.59L203.47 287.12L202.04 291.73L200.79 296.42L199.72 301.17L198.83 306L198.14 310.89L197.64 315.84L197.34 320.84L197.23 325.9L197.34 330.95L197.64 335.96L198.14 340.91L198.83 345.8L199.72 350.62L200.79 355.38L202.04 360.07L203.47 364.68L205.07 369.21L206.85 373.66L208.78 378.02L210.89 382.29L213.14 386.46L215.56 390.53L218.12 394.51L220.83 398.37L223.68 402.12L226.67 405.76L229.8 409.28L233.05 412.67L236.43 415.94L239.94 419.08L243.56 422.08L247.3 424.95L251.14 427.67L255.1 430.24L259.16 432.66L263.31 434.93L267.56 437.04L271.9 438.99L276.33 440.77L280.85 442.38L285.44 443.81L290.1 445.07L294.84 446.15L299.65 447.03L304.52 447.73L309.44 448.23L314.43 448.54L319.46 448.64L324.5 448.54L329.48 448.23L334.41 447.73L339.28 447.03L344.08 446.15L348.82 445.07L353.49 443.81L358.08 442.38L362.59 440.77L367.02 438.99L371.36 437.04L375.61 434.93L379.77 432.66L383.83 430.24L387.78 427.67L391.63 424.95L395.37 422.08L398.99 419.08L402.49 415.94L405.88 412.67L409.13 409.28L412.25 405.76L415.24 402.12L418.1 398.37L420.81 394.51L423.37 390.53L425.78 386.46L428.04 382.29L430.14 378.02L432.08 373.66L433.85 369.21L435.46 364.68L436.89 360.07L438.14 355.38L439.21 350.62L440.09 345.8L440.79 340.91L441.29 335.96L441.59 330.95L441.69 325.9L441.59 320.84L441.29 315.84L440.79 310.89L440.09 306L439.21 301.17L438.14 296.42L436.89 291.73L435.46 287.12L433.85 282.59L432.08 278.14L430.14 273.78L428.04 269.51L425.78 265.34L423.37 261.26L420.81 257.29L418.1 253.43L415.24 249.68L412.25 246.04L409.13 242.52L405.88 239.12L402.49 235.86L398.99 232.72L395.37 229.71L391.63 226.85L387.78 224.13L383.83 221.56L379.77 219.13L375.61 216.86L371.36 214.76L367.02 212.81L362.59 211.03L358.08 209.42L353.49 207.98L348.82 206.73L344.08 205.65L339.28 204.76L334.41 204.07L329.48 203.56L324.5 203.26L319.46 203.16L314.43 203.26L309.44 203.56L309.44 203.56L304.52 204.07ZM323.63 291.67L324.99 291.87L326.33 292.12L327.66 292.42L328.96 292.77L330.24 293.17L331.5 293.63L332.73 294.13L333.95 294.67L335.13 295.27L336.29 295.9L337.42 296.58L338.53 297.31L339.6 298.07L340.64 298.88L341.65 299.72L342.63 300.6L343.58 301.52L344.48 302.47L345.36 303.46L346.19 304.48L346.99 305.54L347.74 306.62L348.46 307.74L349.13 308.88L349.76 310.06L350.35 311.26L350.89 312.48L351.38 313.73L351.83 315L352.23 316.3L352.58 317.62L352.88 318.95L353.12 320.31L353.32 321.68L353.46 323.07L353.54 324.48L353.57 325.9L353.54 327.32L353.46 328.73L353.32 330.12L353.12 331.49L352.88 332.84L352.58 334.18L352.23 335.5L351.83 336.79L351.38 338.07L350.89 339.32L350.35 340.54L349.76 341.74L349.13 342.91L348.46 344.06L347.74 345.17L346.99 346.26L346.19 347.31L345.36 348.33L344.48 349.32L343.58 350.28L342.63 351.2L341.65 352.08L340.64 352.92L339.6 353.72L338.53 354.49L337.42 355.21L336.29 355.89L335.13 356.53L333.95 357.12L332.73 357.67L331.5 358.17L330.24 358.62L328.96 359.03L327.66 359.38L326.33 359.68L324.99 359.93L323.63 360.13L322.26 360.27L320.87 360.35L319.46 360.38L318.06 360.35L316.67 360.27L315.29 360.13L313.93 359.93L312.59 359.68L311.27 359.38L309.97 359.03L308.69 358.62L307.43 358.17L306.19 357.67L304.98 357.12L303.79 356.53L302.63 355.89L301.5 355.21L300.4 354.49L299.32 353.72L298.28 352.92L297.27 352.08L296.29 351.2L295.35 350.28L294.44 349.32L293.57 348.33L292.74 347.31L291.94 346.26L291.18 345.17L290.47 344.06L289.8 342.91L289.16 341.74L288.58 340.54L288.04 339.32L287.54 338.07L287.1 336.79L286.7 335.5L286.35 334.18L286.05 332.84L285.8 331.49L285.61 330.12L285.47 328.73L285.38 327.32L285.36 325.9L285.38 324.48L285.47 323.07L285.61 321.68L285.8 320.31L286.05 318.95L286.35 317.62L286.7 316.3L287.1 315L287.54 313.73L288.04 312.48L288.58 311.26L289.16 310.06L289.8 308.88L290.47 307.74L291.18 306.62L291.94 305.54L292.74 304.48L293.57 303.46L294.44 302.47L295.35 301.52L296.29 300.6L297.27 299.72L298.28 298.88L299.32 298.07L300.4 297.31L301.5 296.58L302.63 295.9L303.79 295.27L304.98 294.67L306.19 294.13L307.43 293.63L308.69 293.17L309.97 292.77L311.27 292.42L312.59 292.12L313.93 291.87L315.29 291.67L316.67 291.53L318.06 291.44L319.46 291.42L320.87 291.44L322.26 291.53L322.26 291.53L323.63 291.67Z" id="b1NBLM1N6u"></path></defs><g><g><g><use xlink:href="#b1NBLM1N6u" opacity="1" fill="#000000" fill-opacity="1"></use></g></g></g></svg>