<?xml version="1.0" encoding="UTF-8" standalone="no"?>
<!DOCTYPE svg PUBLIC "-//W3C//DTD SVG 1.1//EN" "http://www.w3.org/Graphics/SVG/1.1/DTD/svg11.dtd">
<svg version="1.1" xmlns="http://www.w3.org/2000/svg" xmlns:xlink="http://www.w3.org/1999/xlink" preserveAspectRatio="xMidYMid meet" viewBox="0 0 640 640" width="50" height="50"><defs><path d="" id="c2zaqiA6Hd"></path><path d="M132.53 329.65L260.69 420.7L260.69 238.59L260.69 56.5L132.53 147.54L4.36 238.59L132.53 329.65Z" id="d91Fhd0M92"></path><path d="" id="cbrjMOq6ce"></path><path d="" id="b4suIbm7"></path><path d="M285.01 175.83L300.6 177.14L316 178.95L331.21 181.26L346.2 184.06L360.96 187.33L375.48 191.06L389.76 195.25L403.77 199.88L417.51 204.95L430.96 210.43L444.11 216.34L456.94 222.64L469.45 229.33L481.63 236.41L493.45 243.86L504.91 251.67L515.99 259.83L526.69 268.34L536.99 277.17L546.87 286.32L556.33 295.79L565.35 305.55L573.92 315.6L582.03 325.93L589.67 336.53L596.81 347.39L603.46 358.49L609.59 369.84L615.2 381.41L620.27 393.19L624.79 405.19L628.75 417.38L632.14 429.76L634.94 442.31L637.13 455.03L638.72 467.9L639.68 480.92L640 494.07L639.68 507.23L638.72 520.24L637.13 533.12L634.94 545.84L632.14 558.39L628.75 570.77L624.79 582.96L621.22 592.43L620.22 581.82L618.25 569.37L615.51 557.07L612.03 544.94L607.83 532.97L602.9 521.18L597.28 509.59L590.97 498.19L584 487.01L576.37 476.04L568.1 465.3L559.21 454.81L549.72 444.56L539.63 434.57L528.97 424.85L517.76 415.41L505.99 406.27L493.7 397.42L480.89 388.88L467.59 380.66L453.8 372.76L439.55 365.21L424.85 358.01L409.71 351.17L394.15 344.69L378.19 338.6L361.83 332.89L345.11 327.59L328.02 322.69L310.6 318.21L292.85 314.17L274.78 310.56L256.42 307.39L253.32 306.95L253.32 174.77L253.32 174.77L269.25 175.04L285.01 175.83Z" id="g7r0nIX0sh"></path></defs><g><g><g><g><use xlink:href="#c2zaqiA6Hd" opacity="1" fill-opacity="0" stroke="#000000" stroke-width="1" stroke-opacity="1"></use></g></g><g><use xlink:href="#d91Fhd0M92" opacity="1" fill="#000000" fill-opacity="1"></use></g><g><g><use xlink:href="#cbrjMOq6ce" opacity="1" fill-opacity="0" stroke="#000000" stroke-width="1" stroke-opacity="1"></use></g></g><g><g><use xlink:href="#b4suIbm7" opacity="1" fill-opacity="0" stroke="#000000" stroke-width="1" stroke-opacity="1"></use></g></g><g><use xlink:href="#g7r0nIX0sh" opacity="1" fill="#000000" fill-opacity="1"></use></g></g></g></svg>